<?xml version="1.0" encoding="UTF-8" standalone="no"?>
<svg
   id="레이어_1"
   data-name="레이어 1"
   viewBox="0 0 700.00001 330.99"
   version="1.1"
   sodipodi:docname="noodlezip Logo-stickhead-face.svg"
   inkscape:version="1.4.2 (f4327f4, 2025-05-13)"
   width="700"
   height="330.98999"
   xmlns:inkscape="http://www.inkscape.org/namespaces/inkscape"
   xmlns:sodipodi="http://sodipodi.sourceforge.net/DTD/sodipodi-0.dtd"
   xmlns="http://www.w3.org/2000/svg"
   xmlns:svg="http://www.w3.org/2000/svg">
  <sodipodi:namedview
     id="namedview29"
     pagecolor="#505050"
     bordercolor="#eeeeee"
     borderopacity="1"
     inkscape:showpageshadow="0"
     inkscape:pageopacity="0"
     inkscape:pagecheckerboard="0"
     inkscape:deskcolor="#505050"
     inkscape:zoom="1.3453424"
     inkscape:cx="326.68263"
     inkscape:cy="139.36972"
     inkscape:window-width="1920"
     inkscape:window-height="1009"
     inkscape:window-x="-8"
     inkscape:window-y="-8"
     inkscape:window-maximized="1"
     inkscape:current-layer="레이어_1" />
  <defs
     id="defs1">
    <style
       id="style1">.cls-1{fill:#e15424;}.cls-2{fill:#efefed;}.cls-3{fill:#141413;}</style>
  </defs>
  <path
     class="cls-1"
     d="m 118.42,38.19 c -5,5.4 -8.85,10.18 -12.86,14.77 -10.53,12.05 -10,29.05 1.15,41.88 6.58,7.59 10.6,16.16 9.76,26.67 -0.69,8.62 -4.6,15.62 -9.42,22.45 -3.88,5.5 -8.14,10.9 -8.7,18.07 -0.52,6.72 2.65,12.13 6.1,17.42 4.72,7.25 11,13.29 16.18,20.17 0.1,0.13 0.28,0.23 0.33,0.37 2.39,7.37 8,8.06 14.73,6.62 -1,-4.64 -4.48,-7.59 -7.82,-10.73 -10.42,-9.8 -19.36,-20.33 -17.35,-36.16 0.88,-7 4.37,-12.7 8.65,-17.8 5.56,-6.61 10.18,-13.5 10.75,-22.32 0.36,-5.63 -1.63,-10.65 -4.7,-15.43 -4.51,-7.05 -10.53,-13.18 -13,-21.52 -3.46,-11.74 -1.88,-22.5 6,-32 4,-4.79 8.41,-9.3 14.82,-10.94 1.26872,-0.349383 2.55785,-0.619901 3.86,-0.81 1.67,-0.2 3.52,-0.32 4.29,1.58 0.69,1.68 -0.67,2.73 -1.77,3.78 -4.23483,3.96437 -8.00262,8.399827 -11.23,13.22 -5.58,8.45 -7.6,20.75 0.25,30.37 2.5,3.07 4.42,6.62 6.93,9.69 9.43,11.5 8,31.4 0,42.78 -2.67,3.78 -5.56,7.4 -8.1,11.26 -5.41,8.24 -5.67,16.46 0,24.9 5.13,7.66 12.49,13.31 17.86,20.71 1.36,1.86 3.06,3.73 3.62,5.86 1,4 3.15,4.37 6.63,3.32 2.13,-0.65 4.5,-0.52 7.38,-0.81 -2.40397,-3.65466 -5.19328,-7.04072 -8.32,-10.1 -4.56,-4.34 -9.55,-8.38 -13,-13.68 -8.48,-13.06 -6.63,-27.12 2.85,-38.18 4,-4.72 8.1,-9.64 9.87,-15.63 2.86,-9.63 1.45,-18.61 -5,-26.91 -4.24,-5.48 -8.4,-11.17 -10.67,-17.95 -4.94,-14.77 -2,-26.45 11.21,-36.42 8.86,-6.69 19.47,-9.34 29.36,-13.55 21.37,-9.09 43.07,-17.43 64.63,-26.07 5.41,-2.16 10.78,-4.43 16.26,-6.4 5.48,-1.97 10.1,0.1 11.91,4.71 1.75,4.46 -0.19,9 -5.6,11 -14.26,5.36 -28.66,10.38 -43,15.49 -19.76667,7.02 -39.55,14.02 -59.35,21 -5.2,1.82 -9,5.15 -12.5,10.05 6.7,0.55 12.58,-1.42 18.48,-2.37 17.33,-2.77 34.61,-5.85 51.88,-8.91 15.08,-2.666667 30.16333,-5.42 45.25,-8.26 3.87595,-0.750752 7.79823,-1.238532 11.74,-1.46 4.02242,-0.210698 7.41,2.972262 7.45,7 0,4 -1.67,7.34 -5.94,8 -13.36,2.14 -26.78,4 -40.16,6 -17.16,2.56 -34.36,4.77 -51.45,7.85 -12.09,2.18 -24.33,3.53 -36.51,5.23 -1.10901,-0.08351 -2.12243,0.628402 -2.42,1.7 1,4.75 4.46,9 7.37,13.4 4.15,6.33 8.79,12.41 10.22,20.05 2.09,11.13 -1,21.15 -7.06,30.45 -3.05,4.69 -6.74,8.93 -9.28,14 -3.16,6.28 -3.8,12.22 1.07,18.3 5.81,-3.37 11.5,-7.21 17.7,-10.2 9.47,-4.56 19.21,-8.38 29.66,-9.37 11.87,-1.12 20.43,5.31 27.5,14 2.68,3.32 5.09,6.87 7.67,10.36 5,-8.08 3,-16.54 -4.89,-22.9 -10.11,-8.1 -22,-12.22 -34.19,-15.8 -7.18,-2.12 -24.31541,-5.67238 -32.45266,-6.14348 -2.81354,-4.8324 4.99849,-17.6552 4.9009,-15.16024 -0.283,7.23541 30.94473,3.89478 62.51176,22.23372 13.65,7.93 21.45,19.17 20.94,35.57 -0.35,11.13 0.23,22.29 -1,33.4 -2.92,26 -11.35,49.59 -29.73,68.85 -6.30651,6.61166 -13.571,12.23785 -21.55,16.69 -1.46,0.82 -3.08,1.51 -2.64,3.68 2.06,10.22 -3.41,16.44 -11.64,20.63 -12.14,6.19 -25.21,9.17 -38.79,10.44 -6.09,0.57 -12.28,1.15 -18.22,0.62 -18.26,-1.65 -36.67,-3.46 -49.85,-18.94 -2.661649,-3.1105 -4.163478,-7.04706 -4.25,-11.14 -0.13,-3.31 -1.07,-5 -4.23,-6.86 -14.445789,-8.31114 -26.389794,-20.35531 -34.58,-34.87 -5.423075,-9.55718 -9.635457,-19.75222 -12.54,-30.35 -4.15,-14.57 -4.4,-29.56 -4,-44.57 0.14,-5.94 -0.29,-11.87 0.84,-17.79 2.38,-12.62 11.06,-20.13 21.2,-26.28 18.36,-11.15 39,-15.35 59.83,-18.82 4.43,-0.74 4.43,-2.59 3.73,-6.08 -1.67,-8.36 -8.29,-13.8 -12,-20.93 -0.479704,-0.668542 -1.00072,-1.306452 -1.56,-1.91 -1.6,-2.34 -1.36,-6.52 -4.4,-7 -2.65,-0.43 -5.65,1.27 -8.47,2.08 -3.19,0.9 -6.33,1.95 -9.72,1.69 -3.39,-0.26 -5,-2.47 -5.28,-5.44 -0.433542,-2.724029 1.49834,-5.257348 4.24,-5.56 2.38,-0.48 4.64,-1.57 7,-2 7.7,-1.33 11.53,-4.82 13,-13.47 2,-11.71 9.69,-20.36 21.74,-24 2.85,-0.92 5.74,-0.71 9.89,-0.37 z m -87.36,157 c 0.22,9.89 0.91,19.5 3.3,29 5.37,21.22 15.22,39.74 33,53.11 17.27,13 37,19.46 58.57,20.63 18.61,1 36.88,-0.74 54.4,-7.43 30,-11.43 47,-34.06 55,-64.28 2.78343,-10.79576 4.1284,-21.91193 4,-33.06 -40.31,32.18 -159.9,37 -208.27,2.06 z m 3,-15.23 c 3.62,-4.19 6.89,-8.57 11.15,-12.06 11.001706,-9.16665 23.939783,-15.71775 37.84,-19.16 8.62,-2.09 12.08,-8.08 16.45,-14.82 -11.14,2.12 -21.71,4.13 -31.91,7.55 -11.37,3.82 -22.46,8.28 -30.77,17.52 -6.11,6.84 -7.16,14.44 -2.7,21 z m 182.17,12.11 c 3.05,-1.52 6,-2.59 8.4,-5 -1.68,-2.72 -3.21,-5.26 -4.8,-7.76 -7.09,-11.21 -18.56,-15.12 -31.47,-11.19 -10.53,3.21 -19.66,9.32 -29.46,15.2 l 7,6.67 c 7.04487,-6.07667 15.19291,-10.74143 24,-13.74 8.45,-2.84 13.83,-1.37 19.25,5.69 2.46,3.18 4.59,6.55 7.09,10.16 z m -32.18,110.39 c -32.62,11 -64.11,11.09 -96.74,0 3.895503,5.67085 9.727187,9.72458 16.4,11.4 21.66183,6.26356 44.70689,5.86635 66.14,-1.14 5.2,-1.6 10.1,-4.16 14.21,-10.23 z M 86.12,159.86 c -17.8,4.52 -32.44,12.72 -42.7,27.9 2.446832,1.8247 5.140388,3.29269 8,4.36 5,-4.94 9.68,-10.13 15.49,-14 5.81,-3.87 12.47,-5.87 19.2,-7.68 z m -23,37.57 c 2.55,0.82 4.49,1.29 6.31,2.07 4.39,1.88 7.89,1.38 11.53,-2.22 4.12737,-4.09891 9.39201,-6.86189 15.11,-7.93 -2.53,-6.08 -5.72,-7.63 -12.16,-5.95 -8.31,2.2 -14.06,8.21 -20.79,14.03 z m 141,-0.57 c -0.93,-1.59 -1.69,-2.87 -2.42,-4.16 -3.61,-6.31 -7.06,-7.45 -13.44,-3.78 -4.69,2.69 -9,5.95 -14.07,9.29 3.25,1.48 3.66,5.77 8,4.71 7.23,-1.76 14.48,-3.32 21.98,-6.05 z m -112.74,7.62 c 6.32,-0.41 12.33,1.94 18.61,1.48 -2.99,-8.25 -11,-9.04 -18.56,-1.47 z"
     id="path1"
     sodipodi:nodetypes="ccccccccccccccccccccccccccccccccccccccccscccccccccccccccccccccccccccssccccccccccccccccccccccsccccccccccccccccccccccccccccccccccccccccccsccccccccccccccccccc" />
  <path
     class="cls-1"
     d="m 182.43,149.49 c -7.19,3.39 -14.61,5.76 -21.75,9.89 2.93,-13.78 9.09,-16.46 21.75,-9.89 z"
     id="path2" />
  <path
     class="cls-3"
     d="m 135.58,280.03 c -7.48,0.15 -13.57,-2.68 -19.18,-6.68 -2.63,-1.87 -4.5,-4.38 -2.13,-7.56 2.21,-3 4.68,-1.21 6.95,0.29 4.91,3.26 10.12,5.54 16.22,5.2 4.72,-0.26 8.52,-2.32 11.94,-5.42 2.12,-1.93 4.59,-3.19 6.89,-0.4 2.3,2.79 0.8,5.46 -1.52,7.32 -5.63,4.54 -11.96,7.65 -19.17,7.25 z"
     id="path10" />
  <path
     class="cls-3"
     d="m 100.65,234.92 c 6,0 9.91,4.2 10,10.59 0,6.19 -4.19,10.55 -10.17,10.45 A 10.77,10.77 0 0 1 89.95,245.43 c -0.11,-6.11 4.38,-10.53 10.7,-10.51 z"
     id="path11" />
  <path
     class="cls-3"
     d="m 170.01,256.02 a 10.42,10.42 0 0 1 -10.51,-10.33 10.72,10.72 0 0 1 10.76,-10.72 10.48,10.48 0 0 1 10.09,10.72 10,10 0 0 1 -10.34,10.33 z"
     id="path12" />
  <path
     class="cls-1"
     d="m 281.12,191.49 a 9.71,9.71 0 0 1 -5.27,-1.1 4.63,4.63 0 0 1 -2,-2.87 18.32,18.32 0 0 1 -0.39,-4 v -48.58 a 14.65,14.65 0 0 1 0.45,-3.77 4.4,4.4 0 0 1 2.08,-2.67 10.72,10.72 0 0 1 5.27,-1 10.86,10.86 0 0 1 4.68,0.78 4.12,4.12 0 0 1 2.08,2 7.28,7.28 0 0 1 0.58,2.34 13.78,13.78 0 0 0 0.2,1.76 l -0.52,4.16 a 12.13,12.13 0 0 1 2.6,-4 21.77,21.77 0 0 1 4.42,-3.58 25.08,25.08 0 0 1 5.65,-2.6 20.64,20.64 0 0 1 6.31,-1 26,26 0 0 1 10.92,2.21 23.72,23.72 0 0 1 8.25,6.24 28,28 0 0 1 5.27,9.62 39.82,39.82 0 0 1 1.82,12.35 v 25.87 a 15.49,15.49 0 0 1 -0.46,4 4.66,4.66 0 0 1 -2,2.8 q -1.56,1 -5.33,1 c -2.52,0 -4.31,-0.37 -5.4,-1.1 a 4.94,4.94 0 0 1 -2.08,-2.87 16,16 0 0 1 -0.45,-4 v -25.66 a 19.09,19.09 0 0 0 -1.56,-8.06 11.81,11.81 0 0 0 -4.68,-5.27 14.92,14.92 0 0 0 -7.8,-1.88 15.8,15.8 0 0 0 -7.8,1.88 12.93,12.93 0 0 0 -5.2,5.27 16.69,16.69 0 0 0 -1.82,8.06 v 25.87 a 18.32,18.32 0 0 1 -0.39,4 4.34,4.34 0 0 1 -2,2.8 q -1.65,0.99 -5.43,1 z"
     id="path20" />
  <path
     class="cls-1"
     d="m 376.03,192.53 a 31.31,31.31 0 0 1 -12.09,-2.47 36.16,36.16 0 0 1 -10.73,-6.83 31.6,31.6 0 0 1 -10.2,-23.59 32.6,32.6 0 0 1 9.62,-23.4 33.33,33.33 0 0 1 10.46,-7.09 31.87,31.87 0 0 1 12.68,-2.53 32.26,32.26 0 0 1 16.64,4.35 33.19,33.19 0 0 1 11.83,11.77 32.16,32.16 0 0 1 4.42,16.77 32.76,32.76 0 0 1 -2.73,13.52 31.85,31.85 0 0 1 -7.41,10.46 33.62,33.62 0 0 1 -10.53,6.7 32,32 0 0 1 -11.96,2.34 z m -0.26,-15.47 a 17,17 0 0 0 8.25,-2.15 17.3,17.3 0 0 0 9,-15.66 17.91,17.91 0 0 0 -2.21,-9 15.38,15.38 0 0 0 -6.18,-6.05 18.77,18.77 0 0 0 -9,-2.14 16.78,16.78 0 0 0 -8.58,2.27 17,17 0 0 0 -6.18,6.18 17.29,17.29 0 0 0 -2.27,8.84 17.47,17.47 0 0 0 2.47,9.43 17.43,17.43 0 0 0 14.69,8.25 z"
     id="path21" />
  <path
     class="cls-1"
     d="m 448.7,192.53 a 31.31,31.31 0 0 1 -12.09,-2.47 36,36 0 0 1 -10.73,-6.83 31.6,31.6 0 0 1 -10.2,-23.59 32.6,32.6 0 0 1 9.62,-23.4 33.33,33.33 0 0 1 10.46,-7.09 31.83,31.83 0 0 1 12.68,-2.53 32.26,32.26 0 0 1 16.64,4.35 33.19,33.19 0 0 1 11.83,11.77 32.16,32.16 0 0 1 4.42,16.77 32.76,32.76 0 0 1 -2.73,13.52 31.85,31.85 0 0 1 -7.41,10.46 33.62,33.62 0 0 1 -10.53,6.7 32,32 0 0 1 -11.96,2.34 z m -0.26,-15.47 a 17,17 0 0 0 8.25,-2.15 17.3,17.3 0 0 0 9,-15.66 17.91,17.91 0 0 0 -2.21,-9 15.44,15.44 0 0 0 -6.18,-6.05 18.77,18.77 0 0 0 -9,-2.14 16.78,16.78 0 0 0 -8.58,2.27 17,17 0 0 0 -6.18,6.18 17.19,17.19 0 0 0 -2.27,8.84 17.47,17.47 0 0 0 2.47,9.43 17.43,17.43 0 0 0 14.69,8.25 z"
     id="path22" />
  <path
     class="cls-1"
     d="m 519.03,191.49 a 26.27,26.27 0 0 1 -11.19,-2.47 30.34,30.34 0 0 1 -9.42,-6.83 31.77,31.77 0 0 1 -6.43,-10.26 34,34 0 0 1 -2.35,-12.68 32.78,32.78 0 0 1 8.78,-22.43 30.47,30.47 0 0 1 9.42,-6.82 26.27,26.27 0 0 1 11.19,-2.47 24.16,24.16 0 0 1 19.69,9.29 31.52,31.52 0 0 1 5.27,10.14 41.3,41.3 0 0 1 1.81,12.42 38.54,38.54 0 0 1 -1.68,12.41 32.2,32.2 0 0 1 -5.27,10.21 24.11,24.11 0 0 1 -19.82,9.49 z m 2.21,-15.21 a 15.32,15.32 0 0 0 8,-2.14 16.1,16.1 0 0 0 5.72,-5.92 17,17 0 0 0 2.14,-8.58 17.7,17.7 0 0 0 -2.08,-8.71 15.29,15.29 0 0 0 -5.72,-5.92 15.79,15.79 0 0 0 -8.19,-2.14 15.6,15.6 0 0 0 -8.06,2.14 15.87,15.87 0 0 0 -5.78,5.92 17.3,17.3 0 0 0 -2.14,8.71 17,17 0 0 0 2.14,8.58 15.76,15.76 0 0 0 5.85,5.92 16,16 0 0 0 8.12,2.14 z m 24.05,15.21 a 9.41,9.41 0 0 1 -5.4,-1.24 5.51,5.51 0 0 1 -2.15,-4 v -79.91 a 22.66,22.66 0 0 1 0.33,-4 4.41,4.41 0 0 1 1.88,-2.92 c 1.05,-0.74 2.78,-1.11 5.21,-1.11 a 10.16,10.16 0 0 1 5.26,1 4.63,4.63 0 0 1 2.08,2.86 16.79,16.79 0 0 1 0.45,4 v 77.35 a 16.79,16.79 0 0 1 -0.45,4 4.67,4.67 0 0 1 -2,2.86 c -1.05,0.76 -2.79,1.11 -5.21,1.11 z"
     id="path23" />
  <path
     class="cls-1"
     d="m 588.7,191.62 a 50,50 0 0 1 -8.51,-0.65 19.21,19.21 0 0 1 -6.37,-2.21 13.22,13.22 0 0 1 -4.42,-4.23 18.13,18.13 0 0 1 -2.53,-6.56 47.59,47.59 0 0 1 -0.79,-9.36 v -62.53 a 19.09,19.09 0 0 1 0.39,-4.1 4.61,4.61 0 0 1 2.08,-2.86 13.66,13.66 0 0 1 10.6,-0.06 4.66,4.66 0 0 1 2.08,2.86 16.79,16.79 0 0 1 0.45,4 v 62 a 21,21 0 0 0 0.33,4.09 5.59,5.59 0 0 0 1.17,2.6 4.39,4.39 0 0 0 2.21,1.37 12.22,12.22 0 0 0 3.31,0.39 11.13,11.13 0 0 1 3.06,0.39 3.69,3.69 0 0 1 2.21,1.95 11.29,11.29 0 0 1 0.85,5.07 12.61,12.61 0 0 1 -0.85,5.33 3.64,3.64 0 0 1 -2.27,2.08 11.43,11.43 0 0 1 -3,0.43 z"
     id="path24" />
  <path
     class="cls-1"
     d="m 635.12,192.53 a 36.52,36.52 0 0 1 -14.82,-2.8 29.54,29.54 0 0 1 -10.53,-7.54 33.15,33.15 0 0 1 -6.3,-10.66 35.71,35.71 0 0 1 -2.15,-12.28 32.15,32.15 0 0 1 4.29,-16.64 30.53,30.53 0 0 1 11.9,-11.44 35.88,35.88 0 0 1 17.48,-4.16 32.1,32.1 0 0 1 12.35,2.21 27.08,27.08 0 0 1 8.91,5.78 26,26 0 0 1 5.46,7.87 20.71,20.71 0 0 1 1.88,8.32 q 0,6.89 -3.31,10 a 11.58,11.58 0 0 1 -8.26,3.12 H 617.7 a 12.33,12.33 0 0 0 2.8,7.67 17.39,17.39 0 0 0 6.76,5 21.08,21.08 0 0 0 8.38,1.76 37,37 0 0 0 5.72,-0.39 30,30 0 0 0 4.29,-1 32.39,32.39 0 0 0 3.25,-1.24 c 1,-0.43 1.8,-0.82 2.54,-1.17 a 7.07,7.07 0 0 1 2.14,-0.65 5.19,5.19 0 0 1 3,0.65 5.64,5.64 0 0 1 2.34,2.73 10.9,10.9 0 0 1 1.11,2.4 7.89,7.89 0 0 1 0.32,2.15 q 0,2.6 -3.12,4.94 a 25.42,25.42 0 0 1 -8.77,3.83 52.37,52.37 0 0 1 -13.34,1.54 z M 617.7,155.09 h 26.65 a 6.15,6.15 0 0 0 3.32,-0.72 c 0.73,-0.47 1.1,-1.49 1.1,-3.05 a 8.42,8.42 0 0 0 -1.82,-5.33 12.88,12.88 0 0 0 -4.94,-3.77 17,17 0 0 0 -7.15,-1.43 19.22,19.22 0 0 0 -8.71,1.95 16.11,16.11 0 0 0 -6.17,5.2 12.19,12.19 0 0 0 -2.29,7.15 z"
     id="path25" />
  <path
     class="cls-1"
     d="m 681.26,191.62 q -4.94,0 -6.89,-1.89 -1.95,-1.89 -2,-6.69 a 13.12,13.12 0 0 1 0.85,-5.27 5.5,5.5 0 0 1 2.79,-2.79 12.78,12.78 0 0 1 5.33,-0.91 q 4.82,0 6.76,1.95 1.94,1.95 2,6.89 a 13.35,13.35 0 0 1 -0.84,5.2 5,5 0 0 1 -2.73,2.73 14.21,14.21 0 0 1 -5.27,0.78 z"
     id="path26" />
  <path
     class="cls-1"
     d="m 278.27,299.62 a 7.66,7.66 0 0 1 -5.66,-2.15 7.47,7.47 0 0 1 -2.14,-5.52 8.52,8.52 0 0 1 0.58,-3.25 7.14,7.14 0 0 1 1.89,-2.6 l 33.8,-35 h -25.48 a 18.55,18.55 0 0 1 -3.9,-0.39 4.54,4.54 0 0 1 -2.93,-2.08 10,10 0 0 1 -1.1,-5.33 9.71,9.71 0 0 1 1.1,-5.27 4.92,4.92 0 0 1 2.93,-2.08 16.17,16.17 0 0 1 3.9,-0.45 h 41.86 a 7.6,7.6 0 0 1 5.65,2.15 7.46,7.46 0 0 1 2.15,5.52 8.14,8.14 0 0 1 -0.59,3.12 7.18,7.18 0 0 1 -1.49,2.34 l -33.54,35.36 h 29.51 a 16,16 0 0 1 4,0.45 4.61,4.61 0 0 1 2.8,2.15 10.53,10.53 0 0 1 1,5.33 9.64,9.64 0 0 1 -1.11,5.2 4.51,4.51 0 0 1 -2.86,2.08 18.32,18.32 0 0 1 -4,0.39 z"
     id="path27" />
  <path
     class="cls-1"
     d="m 351.46,223.18 q -3.9,0 -5.66,-1.17 a 5,5 0 0 1 -2.21,-3.12 19.09,19.09 0 0 1 -0.45,-4.29 15.81,15.81 0 0 1 0.52,-4.23 5,5 0 0 1 2.27,-3 q 1.76,-1.11 5.66,-1.11 3.9,0 5.59,1.17 a 5.42,5.42 0 0 1 2.21,3.12 16.92,16.92 0 0 1 0.52,4.29 16.09,16.09 0 0 1 -0.52,4.22 5.11,5.11 0 0 1 -2.21,3 q -1.69,1.12 -5.72,1.12 z m 0,76.44 c -2.43,0 -4.18,-0.37 -5.27,-1.11 a 4.58,4.58 0 0 1 -2,-2.86 18.32,18.32 0 0 1 -0.39,-4 v -48.22 a 18.42,18.42 0 0 1 0.39,-4 4.28,4.28 0 0 1 2.08,-2.79 10.51,10.51 0 0 1 5.33,-1 10.14,10.14 0 0 1 5.26,1 4.36,4.36 0 0 1 2,2.86 20,20 0 0 1 0.39,4.16 v 48.1 a 18.32,18.32 0 0 1 -0.39,4 4.34,4.34 0 0 1 -2,2.8 q -1.63,1.06 -5.4,1.06 z"
     id="path28" />
  <path
     class="cls-1"
     d="m 380.32,325.88 q -3.65,0 -5.27,-1.11 a 4.86,4.86 0 0 1 -2.08,-2.79 15.26,15.26 0 0 1 -0.45,-3.9 v -74.65 a 18.42,18.42 0 0 1 0.39,-4 4.56,4.56 0 0 1 2,-2.85 q 1.62,-1.11 5.27,-1.11 a 11.47,11.47 0 0 1 5.33,1 5.27,5.27 0 0 1 2.6,3.51 v 77.87 a 13.08,13.08 0 0 1 -0.33,4 4.79,4.79 0 0 1 -2.14,2.86 10,10 0 0 1 -5.32,1.17 z m 26,-27.17 a 26,26 0 0 1 -11.38,-2.4 23.79,23.79 0 0 1 -8.45,-6.77 30.37,30.37 0 0 1 -5.2,-10.07 41.89,41.89 0 0 1 -1.75,-12.35 43.64,43.64 0 0 1 1.95,-12.42 30.45,30.45 0 0 1 5.26,-10.07 25.19,25.19 0 0 1 8.32,-6.76 24.52,24.52 0 0 1 11.25,-2.44 26.26,26.26 0 0 1 11.18,2.47 29.9,29.9 0 0 1 9.42,6.89 33.27,33.27 0 0 1 6.44,10.2 34.29,34.29 0 0 1 0,24.9 31.08,31.08 0 0 1 -6.44,10 29.87,29.87 0 0 1 -9.36,6.56 27.37,27.37 0 0 1 -11.24,2.26 z m -2.2,-14.56 a 15.85,15.85 0 0 0 8.19,-2.15 15.68,15.68 0 0 0 5.78,-6 17.36,17.36 0 0 0 2.15,-8.64 17.81,17.81 0 0 0 -2.08,-8.71 15,15 0 0 0 -5.72,-5.85 16.19,16.19 0 0 0 -8.19,-2.08 15.46,15.46 0 0 0 -8.06,2.15 15.72,15.72 0 0 0 -5.79,5.91 17,17 0 0 0 -2.14,8.58 17.35,17.35 0 0 0 2.14,8.64 15.63,15.63 0 0 0 5.79,6 15.33,15.33 0 0 0 7.93,2.15 z"
     id="path29" />
  <path
     style="fill:#e6e6e6;stroke-width:0.525596"
     d="m 230.51258,172.64003 c -7.19013,-9.7628 -13.58185,-15.18595 -20.49901,-17.39269 -11.08507,-3.53641 -30.16394,1.65638 -50.05073,13.62254 -3.94328,2.37273 -7.42633,4.31405 -7.74012,4.31405 -0.31379,0 -1.18912,-1.22073 -1.94517,-2.71274 -1.20358,-2.37514 -1.34965,-3.20911 -1.17379,-6.70135 0.25186,-5.00122 1.86446,-8.50922 7.69085,-16.73049 2.29128,-3.23308 4.96494,-7.42348 5.94147,-9.31199 0.98691,-1.90859 2.12568,-3.43447 2.56391,-3.4355 1.50121,-0.004 13.74334,2.11331 19.81998,3.42712 26.02748,5.62731 45.83584,15.73984 50.41245,25.73648 1.69003,3.69151 1.79572,8.60291 0.25985,12.07499 -0.57996,1.31112 -1.13116,2.38384 -1.22488,2.38384 -0.0937,0 -1.91839,-2.37342 -4.05481,-5.27426 z m -66.65002,-14.62761 c 1.51328,-0.8283 6.35411,-3.01609 10.7574,-4.86176 4.4033,-1.84567 8.0102,-3.508 8.01534,-3.69406 0.0195,-0.70479 -7.21041,-3.2025 -10.02284,-3.46259 -5.30164,-0.49027 -8.40374,1.96985 -10.79667,8.5623 -1.21053,3.33498 -1.53038,4.96212 -0.97541,4.96212 0.14892,0 1.5089,-0.6777 3.02218,-1.50601 z"
     id="path3" />
  <path
     style="fill:#e6e6e6;stroke-width:0.525596"
     d="m 211.98023,185.46142 c -6.47419,-9.0771 -9.59588,-11.08287 -16.4136,-10.54619 -7.0321,0.55356 -19.14085,6.29877 -27.79123,13.18602 l -1.99215,1.58611 -3.19929,-3.19929 -3.1993,-3.1993 7.29383,-4.35312 c 20.55328,-12.26664 31.54656,-14.67931 42.36133,-9.29694 4.33739,2.15866 8.42564,6.33098 12.19806,12.44891 l 3.05949,4.96172 -1.24289,1.00643 c -1.15654,0.93651 -5.90034,3.52402 -6.46075,3.52402 -0.13728,0 -2.21336,-2.75326 -4.6135,-6.11837 z"
     id="path4" />
  <path
     style="fill:#e6e6e6;stroke-width:0.525596"
     d="m 176.95449,200.34525 -2.22986,-2.27206 5.99099,-3.99005 c 10.54414,-7.02249 13.74908,-8.09378 17.09219,-5.71328 1.25848,0.89612 3.90257,4.63018 5.69622,8.04437 0.41639,0.79259 -19.25995,6.20308 -22.55878,6.20308 -1.38201,0 -2.24069,-0.48887 -3.99076,-2.27206 z"
     id="path5" />
  <path
     style="fill:#e6e6e6;stroke-width:0.525596"
     d="m 33.073915,177.53595 c -0.529022,-1.09276 -1.058609,-3.57495 -1.176862,-5.51598 -0.188968,-3.10177 -0.01787,-3.95041 1.412863,-7.00782 1.964442,-4.19791 7.177192,-9.80598 12.248776,-13.17769 6.89627,-4.58479 18.102992,-9.23836 29.758117,-12.35698 6.72692,-1.79996 22.840394,-5.22934 23.144057,-4.92568 0.218375,0.21838 -2.53177,4.33541 -4.82297,7.2201 -2.631055,3.31258 -6.38747,5.46403 -12.69609,7.27156 -12.833007,3.67687 -23.497482,9.04341 -33.900951,17.05951 -2.863019,2.20602 -7.460663,6.82727 -11.113109,11.17018 l -1.891975,2.24964 z"
     id="path6" />
  <path
     style="fill:#e6e6e6;stroke-width:0.525596"
     d="m 47.567213,189.96797 c -1.58951,-0.87604 -3.081833,-1.7846 -3.316275,-2.01905 -0.526276,-0.52627 4.859415,-7.34592 8.356899,-10.58194 7.870498,-7.28213 18.163091,-12.82373 30.567753,-16.45789 l 2.75938,-0.8084 v 5.1055 5.10551 l -3.35208,0.87919 c -10.237982,2.68521 -16.662718,6.4421 -25.502361,14.91259 -3.143235,3.01197 -5.919346,5.47203 -6.169136,5.46679 -0.24979,-0.005 -1.754671,-0.72627 -3.34418,-1.6023 z"
     id="path7" />
  <path
     style="fill:#e6e6e6;stroke-width:0.525596"
     d="m 72.532268,200.14385 c -3.006189,-0.71249 -8.671604,-2.99091 -8.30542,-3.34013 2.828639,-2.69759 10.15584,-8.50982 12.511565,-9.92468 5.791369,-3.47832 11.669527,-4.63133 14.953473,-2.93313 1.428068,0.73848 3.703814,3.73572 3.703814,4.87805 0,0.29505 -0.811246,0.68865 -1.802769,0.87466 -2.954361,0.55424 -8.740638,3.76851 -12.372402,6.87285 -2.811727,2.4034 -6.137009,4.15281 -7.374271,3.87956 -0.144539,-0.0319 -0.735834,-0.17015 -1.31399,-0.30718 z"
     id="path8" />
  <path
     style="fill:#e6e6e6;stroke-width:0.525596"
     d="m 103.54244,205.41727 c -0.57816,-0.11575 -3.40073,-0.50548 -6.272387,-0.86607 l -5.221195,-0.65562 2.568189,-1.7011 c 3.245871,-2.14997 5.942123,-2.96369 8.333623,-2.51504 2.1833,0.40959 4.7636,2.41818 5.88011,4.57727 l 0.78301,1.51418 -2.51008,-0.0716 c -1.38054,-0.0394 -2.98311,-0.16628 -3.56127,-0.28204 z"
     id="path9" />
  <path
     style="fill:#e6e6e6;stroke-width:0.525596"
     d="m 121.93831,297.4426 c -0.86724,-0.11515 -3.70546,-0.47599 -6.30716,-0.80185 C 95.576736,294.12889 74.467842,284.28788 60.513587,270.94481 55.517842,266.16788 50.647968,260.2237 47.112681,254.58765 40.854332,244.6104 34.906249,228.26548 32.886265,215.49442 32.294212,211.75125 31.296407,200.57576 31.28129,197.51857 l -0.0083,-1.68237 4.336168,2.6954 c 15.508986,9.6405 37.824038,16.20695 66.882112,19.6808 11.47519,1.37183 46.73758,1.37113 59.12956,-0.001 31.89998,-3.53267 57.66796,-11.12236 73.25887,-21.57763 1.98955,-1.3342 3.70431,-2.42581 3.81057,-2.42581 0.40504,0 0.1692,9.19754 -0.36105,14.08041 -1.33132,12.25957 -5.28433,26.6875 -10.1855,37.17572 -11.74906,25.14231 -31.78146,41.37161 -59.95293,48.57103 -10.4797,2.67816 -16.16225,3.31981 -30.74738,3.47184 -7.66056,0.0799 -14.63785,0.051 -15.50508,-0.0642 z m 22.43374,-18.46963 c 3.65022,-1.2323 8.38275,-4.02233 11.02783,-6.50139 1.68829,-1.58231 2.01617,-2.23225 2.01617,-3.99662 0,-1.50806 -0.36639,-2.50236 -1.2889,-3.49776 -1.49401,-1.61205 -3.1418,-1.76438 -5.06456,-0.46818 -0.74816,0.50437 -2.79849,1.88612 -4.55628,3.07056 -4.19687,2.82794 -7.04157,3.59033 -11.99791,3.21548 -4.1558,-0.3143 -8.4553,-1.96691 -13.45989,-5.17361 -3.30118,-2.11524 -5.44287,-1.94122 -7.13607,0.57984 -0.83181,1.2385 -1.12927,2.25364 -0.9241,3.15358 0.74507,3.26801 9.31311,8.7273 16.13368,10.27987 4.23919,0.96497 11.34481,0.65663 15.25003,-0.66177 z m -39.87502,-23.50634 c 4.1531,-1.48118 6.14096,-4.72252 6.14096,-10.01323 0,-7.2529 -4.39956,-11.33565 -11.433016,-10.60974 -8.93628,0.92231 -12.603202,10.93954 -6.49651,17.74706 2.982805,3.32513 7.463826,4.4183 11.788566,2.87591 z m 69.6164,-0.052 c 8.08871,-3.37968 8.71344,-15.33205 1.0094,-19.31194 -5.05874,-2.61334 -11.03724,-1.06154 -14.01794,3.63854 -2.57467,4.05984 -2.1673,9.67483 0.94356,13.00538 2.99911,3.21092 8.07774,4.334 12.06498,2.66802 z"
     id="path13" />
  <path
     style="fill:#e6e6e6;stroke-width:0.525596"
     d="m 126.93147,317.7223 c -10.85791,-0.83133 -22.94188,-3.50419 -28.838771,-6.37886 -3.223933,-1.57164 -11.55845,-8.84242 -9.266951,-8.08422 7.638705,2.52748 20.311832,5.42148 29.170582,6.6613 6.62838,0.92768 28.59515,0.92689 35.21495,-0.001 7.48655,-1.04968 19.07857,-3.53843 24.6845,-5.29963 2.73606,-0.85959 5.06745,-1.47008 5.18088,-1.35665 0.52956,0.52956 -5.36755,5.6132 -8.12768,7.00651 -10.57774,5.33963 -32.063,8.67436 -48.01751,7.45281 z"
     id="path14" />
  <path
     style="fill:none;fill-opacity:1;stroke-width:0.262798"
     d="M -68.984494,49.668836 V -124.17209 H 228.89712 526.77874 V 2.1023846 c 0,69.4509604 -0.0518,126.2744754 -0.11508,126.2744754 -0.0633,0 -0.86156,-0.17092 -1.77389,-0.37982 -6.88699,-1.57693 -14.47639,-0.11536 -20.86958,4.01907 -7.08141,4.57951 -11.9878,11.95579 -13.92336,20.93237 -0.63011,2.92237 -0.64189,9.6753 -0.0223,12.80904 2.55634,12.9298 11.66963,22.68525 23.67127,25.33928 3.22275,0.71265 8.79186,0.57066 12.31677,-0.31402 l 0.71621,-0.17975 v 16.45336 16.45337 H 387.62716 c -86.10351,0 -139.15158,-0.0936 -139.15158,-0.24561 0,-0.13511 0.16716,-1.05161 0.37146,-2.03669 0.518,-2.4975 1.66383,-10.88877 2.00297,-14.66818 0.3983,-4.43865 0.76858,-32.23901 0.47251,-35.47453 -1.13844,-12.44054 -7.26027,-21.7868 -19.17185,-29.26987 -7.24571,-4.55185 -17.50196,-9.05285 -27.36532,-12.00937 -5.57713,-1.67172 -11.02057,-2.96436 -20.9581,-4.97685 -9.11864,-1.84666 -11.50491,-2.4568 -13.44247,-3.43708 -1.92812,-0.97551 -2.32513,-1.66172 -2.32696,-4.02198 -0.002,-2.51023 -0.61547,-6.69053 -1.3351,-9.09679 -1.31863,-4.40919 -2.91906,-7.29136 -9.75942,-17.575419 -4.9303,-7.412412 -5.88592,-9.065821 -6.65311,-11.511163 -0.43912,-1.399683 -0.44091,-1.534633 -0.0286,-2.163911 0.24186,-0.369123 0.70433,-0.726723 1.02771,-0.794669 0.32339,-0.06795 5.67312,-0.787406 11.88829,-1.598798 13.2929,-1.735392 16.88291,-2.270922 28.1194,-4.194623 9.68597,-1.658255 15.38304,-2.535812 34.08388,-5.250187 49.72676,-7.217689 55.66134,-8.146073 57.26383,-8.958117 2.17145,-1.100359 3.34379,-3.1634 3.58118,-6.301979 0.25641,-3.390481 -1.1504,-5.967611 -4.02546,-7.374253 -1.43125,-0.700246 -1.51903,-0.709804 -5.05209,-0.550286 -4.17696,0.188592 -5.77364,0.440192 -22.73232,3.582053 -22.83626,4.230781 -54.67198,9.867592 -73.49955,13.013779 -6.57652,1.098972 -14.02684,2.403278 -16.55628,2.898458 -2.52943,0.495183 -5.66329,1.022235 -6.96414,1.171231 -2.65927,0.304583 -5.65016,0.361418 -5.65016,0.107368 0,-0.339742 3.00665,-3.829625 4.30788,-5.00024 1.51607,-1.363896 3.72272,-2.908965 5.28425,-3.699958 0.57815,-0.292865 13.82317,-5.05116 29.43338,-10.573985 45.39308,-16.059885 52.21995,-18.487329 63.33434,-22.519913 13.56264,-4.920878 14.04253,-5.12456 15.74925,-6.684409 1.93821,-1.771416 2.61124,-3.250315 2.61799,-5.7528517 0.007,-2.6550331 -0.9236,-4.7525007 -2.91782,-6.5750895 -2.48709,-2.27307714 -5.66577,-2.70801321 -9.7605,-1.33552662 -2.07453,0.69534792 -10.23473,3.92346742 -49.58322,19.61482482 -7.37532,2.941134 -18.10726,7.300599 -23.84872,9.687707 -5.74146,2.387105 -12.36082,5.065643 -14.70968,5.952303 -10.78956,4.072899 -16.61068,6.827867 -20.94623,9.91324 -3.18111,2.263829 -7.28926,6.182469 -9.26864,8.841097 -5.90098,7.92594 -6.86555,17.507949 -2.91003,28.908111 1.68344,4.851839 4.04273,8.937686 9.126,15.804563 3.60854,4.874683 4.60069,6.474853 5.66931,9.143583 2.40933,6.01704 2.69163,11.74335 0.91236,18.50729 -1.14759,4.36257 -3.33845,8.23775 -7.66187,13.55228 -5.58244,6.86213 -7.14762,9.27343 -8.70692,13.41376 -1.54574,4.10435 -1.96234,6.75197 -1.80359,11.46231 0.19064,5.65654 1.31905,9.66886 4.04743,14.39161 2.51167,4.3476 4.36594,6.43335 13.60849,15.30712 4.62738,4.44273 8.98102,9.81064 8.29887,10.23222 -0.17802,0.11004 -1.46822,0.27473 -2.86712,0.36603 -1.3989,0.0913 -3.253,0.35698 -4.12024,0.59043 -2.03501,0.54775 -3.87732,0.38489 -4.73233,-0.41835 -0.35299,-0.33163 -0.83392,-1.14685 -1.06874,-1.81165 -0.23481,-0.66478 -0.62089,-1.68172 -0.85796,-2.25988 -0.73174,-1.78456 -5.56604,-7.94026 -9.66814,-12.31078 -9.00943,-9.59899 -11.18807,-12.32754 -13.22864,-16.56763 -1.63787,-3.40334 -2.15723,-5.56475 -2.14748,-8.93723 0.0171,-5.92192 1.5027,-9.1042 9.06581,-19.41984 3.99338,-5.44672 5.30864,-7.58491 6.49024,-10.55101 2.26114,-5.67602 2.99211,-9.64262 2.98121,-16.17749 -0.007,-3.99766 -0.11089,-5.33977 -0.58639,-7.55116 -1.10595,-5.14344 -2.64277,-8.5578 -5.70925,-12.684296 -1.0204,-1.37312 -2.57397,-3.560914 -3.45239,-4.861765 -0.87842,-1.30085 -2.43796,-3.488644 -3.46565,-4.861764 -2.3645,-3.159269 -3.50063,-5.315356 -4.36725,-8.287923 -1.95924,-6.720367 -0.55025,-14.880376 3.73211,-21.614104 2.40993,-3.789443 6.68241,-8.951577 10.70013,-12.928188 2.75332,-2.725153 3.14745,-3.527383 2.42208,-4.930092 -0.22279,-0.430818 -0.77189,-0.935248 -1.22024,-1.120959 -1.14315,-0.47351 -4.30658,-0.183736 -7.21517,0.660916 -4.43794,1.288775 -7.7111,3.45402 -11.89415,7.868174 -7.21228,7.610727 -10.32981,14.726197 -10.35097,23.625118 -0.009,3.818808 0.2765,6.113574 1.24144,9.975534 1.19834,4.796122 3.07235,8.472499 7.46032,14.635466 4.12859,5.798663 7.06367,10.201993 7.88576,11.830563 2.1313,4.22207 3.03291,8.76559 2.5929,13.06646 -0.66477,6.49781 -3.51347,12.34754 -9.82376,20.17285 -7.40909,9.18789 -9.60549,14.50616 -9.60527,23.25763 1.9e-4,7.84478 2.18336,13.87142 7.69998,21.25589 1.07842,1.44355 4.83056,5.51372 8.74983,9.49148 5.83148,5.9185 6.9866,7.22061 7.69326,8.67234 1.18629,2.43703 1.19392,2.93466 0.0491,3.19917 -0.50588,0.11689 -2.1053,0.22188 -3.55425,0.23334 -4.60326,0.0363 -7.13559,-1.43646 -8.98143,-5.22356 -1.05197,-2.15836 -2.87136,-4.53069 -8.60282,-11.21746 -8.06165,-9.40533 -12.72823,-16.67919 -14.246655,-22.20643 -0.706091,-2.57025 -0.643876,-7.37654 0.130824,-10.10682 0.762603,-2.68764 2.297051,-5.81565 4.355711,-8.87919 0.89887,-1.33762 3.00142,-4.45981 4.67234,-6.93821 6.13783,-9.10391 8.4096,-15.47311 8.4224,-23.61322 0.0135,-8.55523 -2.98666,-15.92792 -9.78487,-24.046025 -4.76898,-5.694897 -7.594836,-11.742785 -8.438134,-18.059276 -0.448712,-3.360967 -0.171113,-8.025837 0.669039,-11.242709 0.836224,-3.201842 3.019205,-7.742841 4.927035,-10.249125 1.50403,-1.975816 10.04961,-11.980972 12.75581,-14.934494 0.90438,-0.987025 1.64432,-1.889355 1.64432,-2.005175 0,-0.115823 -1.33041,-0.292316 -2.95648,-0.392208 -3.62317,-0.222577 -5.73364,0.08757 -9.11002,1.338799 -7.731302,2.865074 -13.722833,8.135605 -16.965133,14.923606 -1.308605,2.73967 -1.950285,4.788611 -2.88059,9.198024 -1.505764,7.136952 -4.715948,10.745979 -10.792462,12.133361 -1.602577,0.365899 -7.536284,2.004137 -10.058702,2.777108 -2.957537,0.906312 -4.143913,4.95968 -2.384456,8.146732 2.011362,3.643351 6.724412,3.701624 16.910725,0.209088 6.262772,-2.147292 7.435159,-1.728568 9.057296,3.234863 0.319944,0.97897 1.019236,2.33895 1.553983,3.022177 0.534747,0.683228 1.308487,1.833529 1.719425,2.556224 0.410937,0.722695 2.136088,3.265266 3.833672,5.65016 5.199882,7.30518 6.412292,9.52272 7.353922,13.45056 0.65582,2.73559 0.66068,3.80425 0.0221,4.85153 -0.67325,1.10412 -1.6914,1.40492 -9.217883,2.72331 -24.580421,4.30568 -39.790109,9.28964 -53.70005,17.59661 -9.716604,5.80272 -15.39828,11.29953 -18.897066,18.28221 -1.872828,3.73767 -2.852536,7.48236 -3.332411,12.73727 -0.367526,4.02467 -0.390973,30.67184 -0.0311,35.34634 0.458184,5.95146 1.523509,13.81666 2.287003,16.88477 l 0.147144,0.5913 h -44.966961 -44.96696 z M 356.49426,222.54902 c 2.65836,-1.1962 3.52304,-3.37624 3.364,-8.48115 -0.0974,-3.1269 -0.15059,-3.40405 -0.9122,-4.75746 -0.66409,-1.18007 -1.08244,-1.57818 -2.33872,-2.22553 -1.47895,-0.76211 -1.6489,-0.78839 -5.09634,-0.78839 -3.37758,0 -3.64601,0.0391 -5.07111,0.73891 -0.8276,0.40641 -1.74182,1.0719 -2.03161,1.47887 -1.18774,1.66803 -1.69755,6.36331 -1.06073,9.76936 0.45508,2.43408 2.0448,4.08364 4.55502,4.72645 0.45675,0.11697 2.30871,0.18169 4.11545,0.14383 2.6382,-0.0553 3.51952,-0.17437 4.47624,-0.60489 z m 24.60192,-30.33572 c 4.23499,-0.6313 9.7958,-2.88085 13.69033,-5.53818 4.23539,-2.88994 8.52409,-7.88692 10.72271,-12.49353 4.30406,-9.01797 4.35173,-20.06421 0.12478,-28.91806 -4.4677,-9.35814 -12.73477,-15.89794 -22.86861,-18.09058 -2.96793,-0.64217 -9.04023,-0.7777 -12.12971,-0.27073 -10.44225,1.71352 -19.6401,8.4946 -24.37783,17.97244 -4.46938,8.94103 -4.48031,20.18177 -0.0283,29.09766 1.79523,3.59521 3.13419,5.48239 5.85204,8.24813 3.55154,3.61405 7.64146,6.29998 12.41932,8.15594 5.51313,2.14157 10.70006,2.7157 16.59525,1.83691 z m 74.07008,-0.28391 c 10.98265,-2.16201 20.64983,-10.45303 24.30817,-20.84785 1.33044,-3.78029 1.86505,-7.05823 1.87038,-11.46816 0.003,-2.11587 -0.0694,-4.30366 -0.15999,-4.86177 -0.846,-5.21449 -2.54812,-9.65189 -5.3287,-13.89184 -1.57201,-2.39706 -6.23239,-7.05429 -8.73255,-8.72663 -5.42123,-3.62624 -10.5413,-5.25162 -17.37676,-5.51632 -9.8087,-0.37984 -17.65611,2.76111 -24.67093,9.8746 -4.47048,4.53336 -6.96402,8.92067 -8.5319,15.01167 -0.94954,3.68876 -1.19194,9.62768 -0.55195,13.52285 1.72432,10.49466 8.27167,19.07428 18.41318,24.12857 6.63844,3.30844 13.43563,4.21696 20.76105,2.77488 z m -169.6658,-0.89072 c 1.23176,-0.36582 2.27302,-1.24036 2.95401,-2.48105 0.29018,-0.52867 0.38952,-3.89091 0.50867,-17.21328 0.12654,-14.15086 0.20958,-16.76628 0.57161,-18.00166 1.5938,-5.43874 4.93133,-8.77213 10.14191,-10.12932 1.91325,-0.49832 6.34189,-0.4933 8.27188,0.009 4.71975,1.22934 7.84195,4.47621 9.1238,9.48814 0.48625,1.90132 0.51979,2.97138 0.52956,16.90159 0.0127,18.16663 0.0938,18.85808 2.41504,20.61 1.23733,0.93382 2.59166,1.22277 5.73927,1.22442 4.43535,0.002 6.12375,-0.76119 7.26072,-3.2835 0.43664,-0.96873 0.48021,-2.29862 0.55537,-16.95048 0.0866,-16.88672 -0.0228,-19.17101 -1.12704,-23.52392 -2.12517,-8.37771 -6.70392,-14.44133 -13.4084,-17.75674 -3.49921,-1.73039 -6.03027,-2.36279 -10.14585,-2.53502 -5.82237,-0.24365 -10.28752,1.04153 -14.81997,4.26555 -1.48331,1.05511 -4.3189,3.85217 -5.06874,4.99988 -0.29131,0.44588 -0.31983,0.31691 -0.20506,-0.92749 0.1844,-1.99923 -0.2752,-4.89884 -0.94936,-5.98966 -0.37501,-0.6068 -1.05345,-1.13965 -2.03169,-1.59573 -1.32364,-0.61711 -1.78009,-0.68512 -4.62225,-0.68874 -2.85872,-0.004 -3.29094,0.0604 -4.62275,0.68496 -1.65939,0.77816 -2.44124,1.70799 -2.86151,3.403 -0.20285,0.81813 -0.26605,9.32417 -0.21276,28.62639 l 0.0759,27.4624 0.71899,1.22307 c 0.78028,1.32734 2.1104,2.14932 4.17739,2.58157 1.45251,0.30374 5.41503,0.0762 7.03129,-0.40379 z"
     id="path17" />
</svg>
